<?xml version="1.0" standalone="no"?>
<!DOCTYPE svg PUBLIC "-//W3C//DTD SVG 20010904//EN"
 "http://www.w3.org/TR/2001/REC-SVG-20010904/DTD/svg10.dtd">
<svg version="1.0" xmlns="http://www.w3.org/2000/svg"
 width="1000.000000pt" height="1000.000000pt" viewBox="0 0 1000.000000 1000.000000"
 preserveAspectRatio="xMidYMid meet">
<metadata>
Created by potrace 1.14, written by Peter Selinger 2001-2017
</metadata>
<g transform="translate(0.000000,1000.000000) scale(0.100000,-0.100000)"
fill="#FF8646" stroke="none">
<path d="M4285 9689 c-38 -4 -171 -13 -294 -19 -123 -6 -231 -15 -241 -20 -10
-6 -61 -10 -112 -10 -51 -1 -113 -5 -138 -11 -25 -5 -81 -14 -125 -18 -44 -5
-107 -16 -140 -25 -32 -9 -76 -16 -96 -16 -20 0 -53 -7 -72 -15 -20 -8 -63
-15 -96 -15 -33 0 -61 -5 -63 -11 -2 -5 -24 -13 -48 -15 -25 -3 -65 -12 -90
-19 -49 -15 -121 -32 -187 -44 -23 -4 -48 -12 -55 -18 -7 -6 -30 -13 -50 -17
-20 -4 -50 -13 -65 -21 -15 -8 -36 -15 -45 -15 -9 0 -29 -6 -45 -14 -15 -7
-46 -21 -68 -31 -22 -9 -53 -23 -68 -31 -16 -8 -37 -14 -47 -14 -9 0 -23 -7
-30 -15 -7 -8 -17 -15 -23 -15 -12 0 -159 -71 -167 -81 -3 -4 -16 -10 -30 -14
-14 -4 -27 -11 -30 -15 -6 -8 -54 -35 -92 -51 -16 -6 -28 -15 -28 -20 0 -5 -4
-9 -9 -9 -15 0 -199 -128 -231 -160 -16 -17 -32 -30 -36 -30 -4 0 -14 -7 -23
-15 -78 -75 -167 -155 -173 -155 -5 0 -8 -7 -8 -15 0 -8 -7 -15 -15 -15 -8 0
-15 -7 -15 -15 0 -8 -7 -15 -15 -15 -8 0 -15 -4 -15 -10 0 -5 -19 -29 -42 -53
-24 -24 -54 -59 -67 -78 -14 -18 -30 -38 -38 -42 -7 -4 -13 -12 -13 -17 0 -6
-7 -18 -16 -27 -36 -41 -84 -113 -84 -126 0 -8 -7 -17 -15 -21 -8 -3 -15 -12
-15 -21 0 -8 -4 -15 -9 -15 -5 0 -14 -13 -20 -30 -5 -16 -15 -30 -20 -30 -6 0
-11 -8 -11 -18 0 -10 -5 -23 -11 -29 -14 -14 -35 -49 -51 -85 -7 -16 -16 -28
-20 -28 -4 0 -10 -16 -14 -35 -3 -19 -10 -35 -15 -35 -5 0 -9 -8 -9 -18 0 -10
-7 -27 -15 -38 -8 -10 -19 -36 -25 -56 -6 -21 -15 -38 -20 -38 -6 0 -10 -15
-10 -34 0 -18 -7 -39 -15 -46 -8 -7 -15 -22 -15 -34 0 -12 -9 -39 -20 -61 -11
-22 -20 -50 -20 -62 0 -13 -4 -23 -9 -23 -5 0 -13 -25 -16 -55 -4 -30 -11 -55
-15 -55 -4 0 -10 -21 -14 -47 -3 -27 -13 -66 -21 -88 -8 -22 -14 -56 -15 -76
0 -20 -7 -53 -15 -72 -8 -20 -15 -63 -15 -96 0 -33 -5 -61 -10 -63 -6 -2 -13
-37 -16 -78 -3 -41 -12 -95 -19 -120 -8 -25 -17 -91 -20 -147 -4 -57 -10 -103
-15 -103 -4 0 -10 -62 -14 -137 -4 -76 -10 -140 -15 -143 -4 -3 -11 -52 -14
-110 -4 -58 -11 -121 -17 -140 -6 -19 -13 -154 -17 -300 -4 -171 -10 -270 -17
-279 -17 -21 -15 -1016 2 -1033 8 -8 12 -55 13 -157 0 -81 5 -182 10 -226 5
-44 15 -151 22 -238 6 -88 15 -156 18 -153 7 7 19 -122 19 -206 0 -33 4 -57 9
-54 5 3 12 -34 16 -82 4 -48 13 -105 20 -127 7 -22 15 -76 18 -120 3 -44 11
-81 16 -83 6 -2 11 -32 11 -70 0 -36 6 -84 14 -107 15 -43 30 -111 48 -212 6
-35 15 -63 19 -63 5 0 11 -22 15 -50 4 -27 10 -50 14 -50 5 0 11 -18 15 -39 4
-22 13 -45 21 -52 8 -6 14 -24 14 -39 0 -15 7 -33 15 -40 8 -7 15 -25 15 -40
0 -15 7 -33 15 -40 8 -7 15 -21 15 -31 0 -9 7 -24 15 -32 7 -8 17 -26 21 -41
3 -14 10 -26 15 -26 5 0 9 -9 9 -19 0 -11 7 -26 15 -34 7 -8 17 -26 20 -40 4
-14 13 -28 21 -31 8 -3 14 -14 14 -25 0 -11 7 -26 15 -35 8 -8 15 -21 15 -29
0 -8 7 -17 15 -21 8 -3 15 -15 15 -26 0 -11 5 -20 10 -20 6 0 16 -12 23 -27
13 -31 15 -34 57 -83 17 -19 33 -45 36 -57 3 -13 12 -23 20 -23 8 0 14 -5 14
-10 0 -6 13 -24 30 -40 17 -16 30 -33 30 -39 0 -5 16 -26 35 -47 19 -22 35
-42 35 -46 0 -5 7 -8 15 -8 8 0 15 -5 15 -10 0 -14 167 -180 180 -180 6 0 10
-7 10 -15 0 -8 7 -15 15 -15 8 0 15 -7 15 -15 0 -8 5 -15 10 -15 6 0 18 -8 28
-18 10 -9 29 -24 42 -32 13 -8 30 -23 39 -33 8 -9 21 -17 28 -17 7 0 13 -6 13
-14 0 -7 8 -17 18 -20 34 -13 72 -37 72 -47 0 -5 7 -9 15 -9 9 0 18 -7 21 -15
4 -8 12 -15 19 -15 6 0 21 -8 33 -18 11 -10 38 -27 59 -38 21 -10 42 -25 46
-32 4 -6 17 -12 27 -12 10 0 23 -6 27 -13 10 -15 69 -47 88 -47 7 0 18 -7 25
-15 7 -8 21 -15 32 -15 10 0 21 -7 24 -15 3 -8 21 -17 40 -21 18 -3 38 -12 45
-20 6 -8 22 -14 35 -14 12 0 26 -5 29 -10 3 -6 26 -15 51 -21 24 -6 44 -15 44
-19 0 -4 15 -10 33 -13 27 -4 97 -25 147 -45 17 -6 88 -24 165 -42 28 -6 66
-16 85 -23 19 -6 60 -14 90 -17 53 -7 91 -15 190 -40 25 -7 86 -15 135 -19 50
-4 106 -13 125 -19 19 -5 91 -13 160 -16 69 -3 159 -10 200 -15 104 -15 367
-31 680 -41 345 -11 1530 -11 1640 0 47 5 155 14 240 20 85 6 201 17 256 25
56 8 139 15 186 15 48 0 89 5 95 11 6 6 49 15 95 19 45 5 101 13 123 19 38 9
94 21 198 41 26 5 62 13 80 19 17 5 52 14 77 21 25 6 68 18 95 26 28 9 70 22
95 29 72 22 113 36 143 51 16 8 36 14 46 14 9 0 26 7 37 15 10 8 26 15 34 15
8 0 33 9 55 20 22 11 47 20 55 20 8 0 24 7 34 15 11 8 30 15 43 15 13 0 23 4
23 8 0 4 25 20 55 36 30 15 57 32 60 37 4 5 15 9 26 9 11 0 22 7 25 15 4 8 14
15 24 15 11 0 22 5 25 10 4 6 21 17 38 24 18 8 45 26 61 40 16 14 37 28 47 31
11 4 19 11 19 16 0 5 6 9 14 9 8 0 16 7 20 15 3 8 12 15 21 15 8 0 15 3 15 8
0 4 21 21 45 37 25 17 45 33 45 38 0 4 7 7 15 7 8 0 15 7 15 15 0 8 6 15 14
15 8 0 18 9 21 20 3 11 10 20 16 20 10 0 37 21 86 67 19 18 39 33 44 33 5 0 9
7 9 15 0 8 7 15 15 15 8 0 15 4 15 10 0 11 26 44 53 69 9 8 17 19 17 23 0 11
69 78 80 78 6 0 10 6 10 14 0 8 16 32 35 53 19 21 35 44 35 51 0 6 5 12 10 12
6 0 10 6 10 13 0 7 9 20 20 30 11 9 20 23 20 31 0 8 7 16 15 20 8 3 15 12 15
21 0 8 7 15 15 15 9 0 15 9 15 25 0 14 5 25 10 25 10 0 35 48 32 63 -1 4 2 7
8 7 5 0 10 7 10 15 0 9 7 18 15 21 8 4 15 14 15 24 0 10 6 25 13 32 8 7 17 26
21 41 3 15 10 27 15 27 5 0 12 13 16 29 3 16 13 35 21 42 8 6 14 26 14 44 0
20 6 35 15 39 8 3 15 16 15 30 0 14 5 28 10 31 6 3 15 26 21 51 6 24 15 44 20
44 5 0 9 10 9 23 0 12 6 34 13 48 8 14 17 43 20 66 4 22 14 53 22 69 8 16 15
41 15 56 0 14 5 28 11 30 6 2 13 25 16 51 3 26 9 47 14 47 4 0 11 26 14 58 4
31 13 75 20 97 8 22 17 61 20 87 3 26 10 50 16 53 5 4 9 26 9 50 0 24 6 64 14
87 8 24 16 81 19 128 3 47 11 99 18 115 6 17 14 102 16 190 3 88 10 166 16
173 6 7 12 140 15 335 3 182 9 325 14 328 13 9 14 1409 1 1417 -6 4 -12 88
-16 205 -3 109 -10 203 -15 210 -5 7 -12 66 -15 132 -3 66 -12 152 -21 190 -9
39 -16 99 -16 136 0 36 -5 70 -12 77 -6 6 -13 49 -16 94 -2 46 -8 88 -13 93
-4 6 -13 41 -19 78 -6 37 -15 77 -20 89 -5 13 -12 49 -15 80 -4 32 -11 60 -16
63 -5 4 -9 21 -9 38 0 18 -6 44 -14 58 -7 14 -16 47 -20 72 -4 26 -11 49 -16
52 -4 3 -11 24 -15 48 -4 23 -14 51 -21 62 -8 11 -14 31 -14 46 0 15 -7 32
-15 39 -8 7 -15 22 -15 34 0 11 -7 30 -15 40 -8 11 -15 30 -15 42 0 13 -6 29
-14 36 -7 8 -17 29 -21 46 -3 18 -10 32 -15 32 -5 0 -11 14 -15 30 -4 17 -10
30 -15 30 -4 0 -11 12 -14 26 -4 15 -14 33 -21 41 -8 8 -15 25 -15 38 0 12 -6
25 -13 28 -7 2 -23 25 -35 51 -13 25 -28 46 -33 46 -5 0 -9 8 -9 19 0 10 -7
24 -15 31 -8 7 -15 17 -15 22 0 5 -9 18 -20 30 -11 12 -20 28 -20 35 0 7 -4
13 -8 13 -4 0 -21 20 -36 45 -16 25 -33 45 -37 45 -5 0 -9 6 -9 14 0 8 -7 16
-15 20 -8 3 -15 12 -15 21 0 8 -7 15 -15 15 -8 0 -15 5 -15 12 0 6 -7 18 -15
27 -46 50 -55 61 -55 66 0 9 -71 75 -80 75 -6 0 -10 4 -10 9 0 13 -33 46 -110
111 -36 30 -69 61 -73 68 -4 6 -15 12 -22 12 -8 0 -15 4 -15 9 0 4 -19 21 -42
37 -24 16 -44 32 -46 37 -2 4 -10 7 -18 7 -8 0 -17 7 -20 15 -4 8 -12 15 -19
15 -7 0 -15 7 -19 15 -3 8 -12 15 -19 15 -8 0 -27 12 -43 26 -16 14 -42 32
-59 41 -54 26 -90 46 -95 52 -9 10 -214 111 -226 111 -6 0 -17 7 -24 15 -7 8
-20 15 -30 15 -9 0 -41 13 -71 29 -30 15 -69 32 -86 35 -18 4 -35 12 -38 17
-4 5 -15 9 -27 9 -11 0 -34 7 -51 15 -44 19 -115 45 -157 55 -76 19 -127 33
-163 46 -20 8 -50 14 -66 14 -16 0 -36 7 -45 15 -9 9 -34 15 -66 15 -28 0 -67
7 -87 15 -19 8 -56 15 -82 15 -25 0 -82 9 -126 20 -44 11 -106 20 -138 20 -32
0 -68 5 -80 11 -22 13 -175 22 -637 38 -157 6 -350 16 -430 22 -175 14 -1136
20 -1235 8z m2687 -2581 c572 -440 608 -468 608 -478 0 -5 -42 -71 -94 -147
-52 -76 -144 -210 -203 -298 -60 -88 -154 -225 -208 -305 -133 -193 -283 -414
-399 -585 -114 -168 -202 -297 -317 -465 -86 -126 -153 -223 -334 -490 -54
-80 -122 -179 -150 -220 -29 -41 -108 -158 -177 -260 -69 -102 -203 -297 -296
-435 -94 -137 -260 -381 -369 -542 -109 -161 -203 -292 -210 -293 -6 0 -46 28
-90 63 -43 34 -309 242 -592 462 -282 220 -601 469 -710 553 -108 84 -252 197
-321 250 -69 53 -177 137 -240 187 -63 50 -187 147 -275 215 -88 67 -164 127
-169 131 -11 10 8 38 253 384 90 127 226 319 303 427 76 109 142 199 146 202
4 2 43 -23 87 -57 122 -92 578 -436 764 -577 176 -133 539 -407 557 -421 7 -6
64 70 165 218 85 125 206 304 269 398 107 157 183 269 516 760 68 99 179 263
248 365 118 176 209 310 461 680 180 265 306 451 348 513 21 32 42 57 47 55 5
-2 177 -132 382 -290z"/>
</g>
</svg>
