<?xml version="1.0" encoding="UTF-8" standalone="no"?>
<svg xmlns="http://www.w3.org/2000/svg" xmlns:pixodesk="https://pixodesk.com" viewBox="0 0 283.312 75.3265" text-rendering="geometricPrecision" shape-rendering="geometricPrecision" stroke-linecap="round" stroke-linejoin="round" stroke-miterlimit="10" width="125px" height="100%">
  <g id="Слой-1">
    <path fill="#ff8646" stroke="none" transform="translate(0.3458, 0.0023)" d="M77.8854,8.1223L145.6365,8.1223C147.5838,8.1223,149.162,10.6373,149.162,13.7396L149.162,62.7795C149.162,65.8819,147.5838,68.3968,145.6365,68.3968L77.8854,68.3968C75.9386,68.3968,74.3604,65.8819,74.3604,62.7795L74.3604,13.7396C74.3604,10.6373,75.9386,8.1223,77.8854,8.1223z"/>
    <g fill="#ffffff" stroke="none" transform="translate(0.407, 0.2679)">
      <path transform="translate(-0.1259, 0.0084)" d="M119.045,17.3615L119.045,44.5207C119.045,49.033,117.633,52.6014,114.811,55.2257C111.988,57.8501,108.132,59.1623,103.242,59.1623C98.4275,59.1623,94.6043,57.8879,91.7722,55.339C88.9402,52.7902,87.4959,49.2879,87.4392,44.8322L87.4392,17.3615L95.9353,17.3615L95.9353,44.5773C95.9353,47.2772,96.582,49.2454,97.8753,50.4821C99.1686,51.7187,100.957,52.3371,103.242,52.3371C108.019,52.3371,110.445,49.826,110.52,44.8039L110.52,17.3615L119.045,17.3615z"/>
      <path d="M136.046,58.5959L127.55,58.5959L127.55,17.3615L136.046,17.3615L136.046,58.5959z"/>
    </g>
    <g fill="#2b3648" stroke="none">
      <path d="M174.584,43.7158L167.815,43.7158L167.815,58.8106L159.319,58.8106L159.319,17.5762L174.64,17.5762C179.511,17.5762,183.269,18.6618,185.912,20.833C188.555,23.0042,189.877,26.0723,189.877,30.0371C189.877,32.8503,189.268,35.1961,188.05,37.0747C186.832,38.9533,184.987,40.4496,182.513,41.5635L191.434,58.4141L191.434,58.8106L182.315,58.8106L174.584,43.7158zM167.815,36.834L174.669,36.834C176.802,36.834,178.454,36.2912,179.625,35.2056C180.795,34.12,181.381,32.6237,181.381,30.7168C181.381,28.7721,180.828,27.2428,179.724,26.1289C178.619,25.015,176.925,24.458,174.64,24.458L167.815,24.458L167.815,36.834z"/>
      <path d="M230.205,39.1279C230.205,43.1872,229.487,46.7461,228.052,49.8047C226.618,52.8633,224.564,55.2233,221.893,56.8848C219.221,58.5462,216.158,59.377,212.703,59.377C209.286,59.377,206.236,58.5557,203.555,56.9131C200.874,55.2705,198.798,52.9247,197.325,49.8755C195.852,46.8263,195.106,43.3193,195.088,39.3545L195.088,37.3154C195.088,33.2562,195.819,29.6831,197.282,26.5962C198.746,23.5093,200.813,21.1398,203.485,19.4878C206.156,17.8358,209.21,17.0098,212.646,17.0098C216.082,17.0098,219.136,17.8358,221.808,19.4878C224.479,21.1398,226.547,23.5093,228.01,26.5962C229.473,29.6831,230.205,33.2468,230.205,37.2871L230.205,39.1279zM221.595,37.2588C221.595,32.9352,220.821,29.6501,219.273,27.4033C217.725,25.1566,215.516,24.0332,212.646,24.0332C209.795,24.0332,207.596,25.1424,206.048,27.3609C204.499,29.5793,203.716,32.8314,203.697,37.1172L203.697,39.1279C203.697,43.3382,204.471,46.6045,206.019,48.9268C207.567,51.249,209.795,52.4102,212.703,52.4102C215.554,52.4102,217.744,51.2915,219.273,49.0542C220.802,46.8169,221.577,43.5553,221.595,39.2695L221.595,37.2588z"/>
      <path d="M248.48,17.5762L259.072,47.4824L269.607,17.5762L280.765,17.5762L280.765,58.8106L272.241,58.8106L272.241,47.5391L273.091,28.083L261.961,58.8106L256.127,58.8106L245.025,28.1113L245.875,47.5391L245.875,58.8106L237.379,58.8106L237.379,17.5762L248.48,17.5762z"/>
    </g>
    <g fill="#2b3648" stroke="none">
      <path d="M16.1541,17.5763L26.7459,47.4826L37.281,17.5763L48.4392,17.5763L48.4392,58.8107L39.9148,58.8107L39.9148,47.5392L40.7644,28.0832L29.6346,58.8107L23.8006,58.8107L12.699,28.1115L13.5486,47.5392L13.5486,58.8107L5.0525,58.8107L5.0525,17.5763L16.1541,17.5763z"/>
      <path d="M64.8933,58.8107L56.3972,58.8107L56.3972,17.5763L64.8933,17.5763L64.8933,58.8107z"/>
    </g>
  </g>
</svg>